<?xml version="1.0" standalone="no"?>
<!DOCTYPE svg PUBLIC "-//W3C//DTD SVG 20010904//EN"
 "http://www.w3.org/TR/2001/REC-SVG-20010904/DTD/svg10.dtd">
<svg version="1.0" xmlns="http://www.w3.org/2000/svg"
 width="68.000000pt" height="42.000000pt" viewBox="0 0 1200.000000 537.000000"
 preserveAspectRatio="xMidYMid meet">

<g transform="translate(0.000000,537.000000) scale(0.100000,-0.100000)"
fill="#000000" stroke="none">
<path d="M5067 4064 c-314 -62 -531 -267 -608 -574 -26 -104 -29 -269 -6 -346
18 -63 69 -161 100 -195 83 -92 218 -167 432 -239 270 -92 375 -174 411 -322
15 -61 15 -73 0 -159 -46 -270 -240 -429 -527 -429 -159 0 -300 62 -435 191
-48 47 -89 61 -127 45 -26 -11 -147 -160 -147 -181 0 -20 135 -143 207 -189
135 -87 279 -127 458 -128 435 -2 760 243 859 647 37 152 28 340 -20 440 -77
157 -199 244 -503 359 -188 72 -267 113 -330 176 -75 74 -95 129 -89 248 9
197 125 334 339 401 46 14 212 14 258 0 73 -23 158 -68 230 -123 78 -59 102
-66 139 -40 22 15 122 150 122 164 0 4 -21 29 -47 55 -52 53 -150 118 -228
155 -119 54 -337 74 -488 44z"/>
<path d="M6811 4026 c-51 -28 -50 -25 -51 -568 l0 -508 29 -32 29 -33 811 -3
c904 -3 868 -5 897 63 12 31 14 109 12 533 -3 535 -2 527 -55 551 -38 17
-1641 14 -1672 -3z m1668 -52 c17 -21 21 -41 21 -94 l0 -67 -37 -7 c-21 -3
-387 -6 -813 -6 -426 0 -792 3 -812 6 l-38 7 0 70 c0 59 4 75 22 94 l21 23
808 0 808 0 20 -26z m21 -324 l0 -110 -850 0 -850 0 0 110 0 110 850 0 850 0
0 -110z m-2 -425 c-3 -238 -5 -266 -21 -282 -17 -17 -65 -18 -821 -21 -801 -2
-803 -2 -829 19 l-27 20 0 265 0 264 850 0 851 0 -3 -265z"/>
<path d="M6970 3080 c0 -19 5 -21 68 -18 52 2 67 6 67 18 0 12 -15 16 -67 18
-63 3 -68 1 -68 -18z"/>
<path d="M7215 3090 c-13 -22 12 -31 76 -28 49 2 64 7 64 18 0 12 -15 16 -67
18 -41 2 -69 -1 -73 -8z"/>
<path d="M6065 2620 c-4 -6 -1 -17 5 -25 10 -12 49 -15 206 -15 l194 0 0 -465
0 -465 -202 -2 c-173 -3 -203 -5 -203 -18 0 -13 32 -15 225 -15 l225 0 3 78 3
77 79 0 c69 0 121 -12 422 -95 410 -114 475 -126 579 -101 103 25 881 445 909
491 64 105 -5 244 -115 232 -24 -3 -161 -63 -344 -151 -168 -80 -307 -144
-309 -142 -2 3 2 14 8 27 18 32 7 111 -19 148 -13 17 -40 40 -61 51 -36 18
-60 20 -273 20 -148 0 -246 4 -266 11 -18 7 -78 49 -133 94 -126 104 -159 115
-346 115 l-132 0 0 68 c0 40 -5 73 -12 80 -16 16 -434 17 -443 2z m788 -213
c18 -8 73 -47 122 -87 138 -111 131 -110 391 -110 122 0 236 -3 253 -6 71 -14
118 -99 91 -164 -24 -58 -47 -64 -245 -70 -151 -4 -180 -7 -180 -20 0 -13 29
-15 200 -15 237 0 189 -15 595 180 157 75 299 139 316 142 68 11 123 -80 89
-150 -19 -40 7 -24 -390 -240 -514 -279 -449 -252 -590 -251 l-120 0 -346 97
c-316 89 -354 97 -433 97 l-86 0 0 305 0 305 150 0 c104 0 161 -4 183 -13z"/>
</g>
</svg>
